<svg width="13" height="13" viewBox="0 0 13 13" fill="none" xmlns="http://www.w3.org/2000/svg">
    <path d="M12.6636 0.345766C12.2821 -0.0358037 11.6657 -0.0358037 11.2841 0.345766L6.4998 5.12028L1.7155 0.335982C1.33393 -0.0455878 0.717552 -0.0455878 0.335982 0.335982C-0.0455878 0.717552 -0.0455878 1.33393 0.335982 1.7155L5.12028 6.4998L0.335982 11.2841C-0.0455878 11.6657 -0.0455878 12.2821 0.335982 12.6636C0.717552 13.0452 1.33393 13.0452 1.7155 12.6636L6.4998 7.87933L11.2841 12.6636C11.6657 13.0452 12.2821 13.0452 12.6636 12.6636C13.0452 12.2821 13.0452 11.6657 12.6636 11.2841L7.87933 6.4998L12.6636 1.7155C13.0354 1.34372 13.0354 0.717552 12.6636 0.345766Z" fill="#AAAAAA"/>
</svg>
