
<svg fill="#000000" height="800px" width="800px" version="1.1" id="Layer_1" xmlns="http://www.w3.org/2000/svg" xmlns:xlink="http://www.w3.org/1999/xlink" viewBox="0 0 512 512" xml:space="preserve">
<g>
	<g>
		<path d="M476.624,55.698C468.257,22.9,440.129,0,408.219,0c-0.005,0-0.012,0-0.017,0h-40.814H144.609H103.8
			c-0.006,0-0.011,0-0.017,0c-31.91,0-60.039,22.902-68.406,55.696c-4.265,16.718-5.249,43.19,14.293,74.356
			c14.927,23.808,39.204,45.76,72.2,65.384c4.093,62.186,50.632,112.966,110.857,123.569v50.975h-72.204
			c-12.853,0-23.273,10.42-23.273,23.273v95.474c0,12.853,10.42,23.273,23.273,23.273h190.954c12.853,0,23.273-10.42,23.273-23.273
			v-95.476c0-12.853-10.42-23.273-23.273-23.273h-72.204v-50.932c60.38-10.511,107.062-61.414,111.096-123.75
			c32.877-19.586,57.071-41.492,71.962-65.243C481.873,98.887,480.889,72.417,476.624,55.698z M80.476,67.204
			c3.463-13.563,14.344-20.658,23.315-20.658h0.005h17.576l0.129,92.641C85.512,111.52,75.942,84.973,80.476,67.204z
			 M328.203,416.524v48.93H183.794v-48.93H328.203z M344.117,181.596c0,0.064,0,0.127,0,0.191v4.732
			c0,48.513-39.471,87.982-87.988,87.982c-48.533,0-88.017-39.467-88.017-88.014l-0.195-139.94h176.201V181.596z M390.662,139.062
			V46.545h17.548h0.005c8.965,0,19.85,7.097,23.312,20.66C436.05,84.949,426.518,111.442,390.662,139.062z"/>
	</g>
</g>
</svg>