<svg width="18" height="18" viewBox="0 0 18 18" fill="none" xmlns="http://www.w3.org/2000/svg">
    <path fill-rule="evenodd" clip-rule="evenodd" d="M16.6012 1.25592C15.6248 0.279608 14.042 0.279599 13.0657 1.25592L11.6658 2.65575L5.07749 9.24404C4.97069 9.35087 4.89493 9.48471 4.8583 9.63121L4.02496 12.9645C3.95396 13.2485 4.03717 13.549 4.24416 13.7559C4.45114 13.9629 4.75155 14.0461 5.03553 13.9751L8.36883 13.1418C8.51542 13.1051 8.64917 13.0294 8.756 12.9225L15.2964 6.38218L16.7442 4.93442C17.7205 3.95812 17.7205 2.3752 16.7442 1.39889L16.6012 1.25592ZM14.2442 2.43442C14.5696 2.10899 15.0972 2.10899 15.4227 2.43442L15.5657 2.5774C15.8911 2.90284 15.8911 3.43048 15.5657 3.75592L14.7186 4.60302L13.4224 3.25619L14.2442 2.43442ZM12.2437 4.43492L13.5398 5.78174L7.74075 11.5809L5.97872 12.0214L6.41921 10.2594L12.2437 4.43492ZM2.33341 5.66666C2.33341 5.20642 2.70651 4.83332 3.16675 4.83332H7.33342C7.79366 4.83332 8.16675 4.46023 8.16675 3.99999C8.16675 3.53976 7.79366 3.16666 7.33342 3.16666H3.16675C1.78604 3.16666 0.666748 4.28595 0.666748 5.66666V14.8333C0.666748 16.214 1.78604 17.3333 3.16675 17.3333H12.3334C13.7142 17.3333 14.8334 16.214 14.8334 14.8333V10.6666C14.8334 10.2065 14.4603 9.83329 14.0001 9.83329C13.5398 9.83329 13.1667 10.2065 13.1667 10.6666V14.8333C13.1667 15.2935 12.7937 15.6666 12.3334 15.6666H3.16675C2.70651 15.6666 2.33341 15.2935 2.33341 14.8333V5.66666Z" fill="#939393"/>
</svg>
