<svg width="19" height="17" viewBox="0 0 19 17" fill="none" xmlns="http://www.w3.org/2000/svg">
    <path d="M1.48279 1L17.5168 16M7.57955 6.76137C7.11399 7.21133 6.82748 7.82433 6.82748 8.5C6.82748 9.88075 8.02396 11 9.49981 11C10.2325 11 10.8963 10.7242 11.379 10.2775M4.60053 4.03929C2.90867 5.08362 1.62 6.65328 1 8.5C2.13508 11.8809 5.51141 14.3333 9.49999 14.3333C11.2717 14.3333 12.9225 13.8495 14.3098 13.0153M8.60903 2.70782C8.90209 2.68061 9.19935 2.66667 9.49999 2.66667C13.4886 2.66667 16.865 5.11909 18 8.5C17.75 9.245 17.391 9.94483 16.9407 10.5833" stroke="#BBBBBB" stroke-width="2" stroke-linecap="round" stroke-linejoin="round"/>
</svg>
