<svg width="36" height="32" viewBox="0 0 36 32" fill="none" xmlns="http://www.w3.org/2000/svg">
    <path fill-rule="evenodd" clip-rule="evenodd" d="M29.9393 0.942977C25.8498 -1.02588 20.6805 0.181037 17.791 3.69968L29.9393 0.942977ZM17.791 3.69968C14.906 0.181037 9.75591 -1.02435 5.64121 0.941453L5.63528 0.944501C3.0647 2.18799 1.12157 4.42505 0.354698 7.30976C-0.41069 10.1945 0.0387526 13.5653 1.93591 17.0413C4.4872 21.7394 8.92526 25.2992 15.9458 30.9299L16.8758 31.6766C17.1366 31.8858 17.4579 31.9995 17.7888 31.9995C18.1196 31.9995 18.441 31.8858 18.7018 31.6766L19.6318 30.9299C26.6508 25.3007 31.0889 21.7409 33.6402 17.0443C35.5536 13.5699 36.0135 10.1975 35.2481 7.30976C34.4797 4.42048 32.5247 2.18494 29.9393 0.942977M28.6829 3.7012C25.2387 2.04474 20.7013 3.6372 19.1378 7.15127C19.0197 7.41689 18.8297 7.64203 18.5905 7.79989C18.3513 7.95775 18.0731 8.04167 17.7888 8.04167C17.5045 8.04167 17.2262 7.95775 16.987 7.79989C16.7479 7.64203 16.5579 7.41689 16.4397 7.15127C14.8778 3.63872 10.373 2.04322 6.89461 3.70273C5.05976 4.59115 3.73961 6.14399 3.216 8.11284C2.69388 10.0832 2.92972 12.6327 4.52428 15.5524L4.52576 15.5555C6.73293 19.6197 10.5984 22.7695 17.7895 28.542C24.9791 22.7695 28.8446 19.6197 31.0518 15.5555L31.0562 15.5463C32.6656 12.6266 32.9074 10.0787 32.3853 8.11284C31.8632 6.14704 30.5371 4.59268 28.6844 3.70273H28.6815L28.6829 3.7012Z" fill="white"/>
</svg>
