<svg width="24" height="22" viewBox="0 0 24 22" fill="none" xmlns="http://www.w3.org/2000/svg">
<path d="M3.08103 12.4489L11.2948 20.4013C11.5777 20.6752 11.7192 20.8121 11.886 20.8459C11.9611 20.8611 12.0384 20.8611 12.1135 20.8459C12.2803 20.8121 12.4217 20.6752 12.7047 20.4013L20.9184 12.4489C23.2294 10.2115 23.51 6.52949 21.5664 3.94756L21.201 3.46207C18.8758 0.373344 14.2085 0.891343 12.5747 4.41947C12.3439 4.91784 11.6556 4.91784 11.4248 4.41947C9.79101 0.891343 5.12372 0.373344 2.79853 3.46208L2.43306 3.94756C0.489394 6.52949 0.770033 10.2115 3.08103 12.4489Z" stroke="#737373" stroke-width="2"/>
</svg>
