<svg width="27" height="32" viewBox="0 0 27 32" fill="none" xmlns="http://www.w3.org/2000/svg">
    <path d="M13.4994 1.31696e-07C14.5465 -0.000270943 15.5536 0.417937 16.3117 1.16789C17.0698 1.91784 17.5208 2.94198 17.5711 4.02791C19.4605 4.85904 21.0723 6.24949 22.2054 8.02572C23.3385 9.80195 23.9426 11.8853 23.9425 14.0158V20.1088C24.7742 20.1761 25.5509 20.5665 26.1176 21.2021C26.6843 21.8377 26.9994 22.6718 27 23.5379C26.9987 24.4501 26.6487 25.3245 26.0269 25.9689C25.405 26.6133 24.5623 26.975 23.6837 26.9747H3.31508C2.4364 26.975 1.59357 26.6131 0.971909 25.9683C0.350248 25.3236 0.00065347 24.4489 0 23.5367C0.000578548 22.6709 0.315531 21.8371 0.882023 21.2017C1.44852 20.5664 2.2249 20.1761 3.05628 20.1088V14.0158C3.05628 9.60019 5.62084 5.69895 9.42886 4.02791C9.4792 2.9422 9.93003 1.91824 10.6879 1.16833C11.4457 0.418412 12.4525 5.77971e-05 13.4994 1.31696e-07ZM11.0864 6.20692C9.49374 6.73786 8.10459 7.78017 7.11921 9.18359C6.13383 10.587 5.60312 12.2791 5.60359 14.0158V20.3622C5.60359 21.6762 4.57702 22.7434 3.31138 22.7434C3.10893 22.744 2.91497 22.8278 2.77182 22.9765C2.62867 23.1251 2.54796 23.3265 2.54731 23.5367C2.54731 23.9742 2.88991 24.33 3.31631 24.33H23.6837C24.1076 24.33 24.4527 23.973 24.4527 23.5367C24.4527 23.1016 24.1076 22.7434 23.6886 22.7434C23.3875 22.7437 23.0893 22.6824 22.811 22.5629C22.5328 22.4434 22.28 22.2681 22.0671 22.0471C21.8541 21.826 21.6853 21.5635 21.5702 21.2746C21.4552 20.9857 21.3961 20.6761 21.3964 20.3635V14.0171C21.3967 12.28 20.8658 10.5878 19.8802 9.18417C18.8946 7.78055 17.5053 6.73805 15.9124 6.20692L15.0288 5.91263V4.22751C15.0288 3.80672 14.8678 3.40316 14.5812 3.10562C14.2946 2.80807 13.9059 2.64092 13.5006 2.64092C13.0953 2.64092 12.7066 2.80807 12.4201 3.10562C12.1335 3.40316 11.9725 3.80672 11.9725 4.22751V5.91135L11.0864 6.20692ZM8.65987 26.9747H11.2072C11.2072 27.2872 11.2665 27.5967 11.3817 27.8855C11.4969 28.1742 11.6657 28.4366 11.8785 28.6575C12.0914 28.8785 12.3441 29.0538 12.6222 29.1734C12.9003 29.293 13.1984 29.3546 13.4994 29.3546C13.8004 29.3546 14.0985 29.293 14.3766 29.1734C14.6547 29.0538 14.9074 28.8785 15.1202 28.6575C15.3331 28.4366 15.5019 28.1742 15.6171 27.8855C15.7323 27.5967 15.7916 27.2872 15.7916 26.9747H18.3401C18.3401 28.3075 17.8302 29.5857 16.9225 30.5281C16.0148 31.4705 14.7837 32 13.5 32C12.2163 32 10.9852 31.4705 10.0775 30.5281C9.16981 29.5857 8.65987 28.3075 8.65987 26.9747Z" fill="white"/>
</svg>
