<svg width="9" height="9" viewBox="0 0 9 9" fill="none" xmlns="http://www.w3.org/2000/svg">
    <path d="M4.23574 0.800293C2.09489 0.800293 0.433105 2.45902 0.433105 4.46391C0.433105 6.78612 1.1068 7.03132 2.10986 6.93035C2.10986 6.93035 2.46916 8.89197 3.09795 8.89197C3.72673 8.89197 4.29563 8.89197 4.29563 8.89197C4.29563 8.89197 4.86453 8.89197 5.44839 8.89197C6.03226 8.89197 6.43648 6.93035 6.43648 6.93035C7.42457 7.03132 8.11324 6.78612 8.11324 4.46391C8.11324 2.45902 6.39157 0.800293 4.23574 0.800293ZM2.12483 5.73319C1.60084 5.57453 1.34634 4.93989 1.55593 4.29082C1.76553 3.64176 2.3494 3.26674 2.87338 3.4254C3.39737 3.58406 3.65187 4.2187 3.44228 4.86777C3.24766 5.48799 2.64882 5.89185 2.12483 5.73319ZM4.29563 6.67073C3.87644 6.67073 3.51713 7.52172 3.51713 6.62746C3.51713 6.58419 3.51713 6.52649 3.51713 6.48322C3.62193 6.07936 3.98124 5.43029 4.25071 5.43029C4.56511 5.43029 5.02921 6.18032 5.02921 6.54091C5.02921 6.54091 5.02921 6.58419 5.07412 6.64188C5.07412 7.49288 4.65493 6.67073 4.29563 6.67073ZM6.43648 5.71877C5.9125 5.87743 5.32863 5.48799 5.11903 4.85335C4.90944 4.20428 5.17892 3.56964 5.68793 3.41098C6.21192 3.25232 6.79579 3.64176 7.00538 4.2764C7.21497 4.92546 6.96047 5.56011 6.43648 5.71877Z" fill="white"/>
</svg>
