<svg width="8" height="11" viewBox="0 0 8 11" fill="none" xmlns="http://www.w3.org/2000/svg">
    <path d="M7 3.99995H6.5V2.99995C6.5 1.61995 5.38 0.499947 4 0.499947C2.62 0.499947 1.5 1.61995 1.5 2.99995V3.99995H1C0.45 3.99995 0 4.44995 0 4.99995V9.99995C0 10.5499 0.45 10.9999 1 10.9999H7C7.55 10.9999 8 10.5499 8 9.99995V4.99995C8 4.44995 7.55 3.99995 7 3.99995ZM4 8.49995C3.45 8.49995 3 8.04995 3 7.49995C3 6.94995 3.45 6.49995 4 6.49995C4.55 6.49995 5 6.94995 5 7.49995C5 8.04995 4.55 8.49995 4 8.49995ZM2.5 3.99995V2.99995C2.5 2.16995 3.17 1.49995 4 1.49995C4.83 1.49995 5.5 2.16995 5.5 2.99995V3.99995H2.5Z" fill="#777777"/>
</svg>
