<svg width="22" height="22" viewBox="0 0 22 22" fill="none" xmlns="http://www.w3.org/2000/svg">
<path d="M0.821138 21.8566H3.72944C4.10401 21.8566 4.408 21.5533 4.408 21.1781V16.2151C4.408 15.8399 4.10401 15.5365 3.72944 15.5365H0.821138C0.446573 15.5365 0.142578 15.8399 0.142578 16.2151V21.1781C0.142578 21.5527 0.446573 21.8566 0.821138 21.8566ZM1.4997 16.893H3.05088V20.4989H1.4997V16.893Z" fill="#737373"/>
<path d="M9.54585 21.8567C9.92041 21.8567 10.2244 21.5534 10.2244 21.1782V7.1727C10.2244 6.79746 9.92041 6.49414 9.54585 6.49414H6.63754C6.26298 6.49414 5.95898 6.79746 5.95898 7.1727V21.1782C5.95898 21.5534 6.26298 21.8567 6.63754 21.8567H9.54585ZM7.3161 7.85126H8.86729V20.4996H7.3161V7.85126Z" fill="#737373"/>
<path d="M15.3635 21.8571C15.7381 21.8571 16.0421 21.5538 16.0421 21.1785V11.8123C16.0421 11.4371 15.7381 11.1338 15.3635 11.1338H12.4559C12.0813 11.1338 11.7773 11.4371 11.7773 11.8123V21.1785C11.7773 21.5538 12.0813 21.8571 12.4559 21.8571H15.3635ZM13.1345 12.4909H14.6856V20.4999H13.1345V12.4909Z" fill="#737373"/>
<path d="M17.5918 0.821138V21.1779C17.5918 21.5532 17.8958 21.8565 18.2704 21.8565H21.1787C21.5532 21.8565 21.8572 21.5532 21.8572 21.1779V0.821138C21.8572 0.445894 21.5532 0.142578 21.1787 0.142578H18.2704C17.8958 0.142578 17.5918 0.445894 17.5918 0.821138ZM18.9489 1.4997H20.5001V20.4994H18.9489V1.4997Z" fill="#737373"/>
</svg>
