<svg width="9" height="10" viewBox="0 0 9 10" fill="none" xmlns="http://www.w3.org/2000/svg">
    <path d="M4.33949 2.59679C2.22158 2.59679 0.503906 4.24198 0.503906 6.27053C0.503906 8.29908 2.22158 9.94428 4.33949 9.94428C6.4574 9.94428 8.17507 8.29908 8.17507 6.27053C8.17507 4.24198 6.4574 2.59679 4.33949 2.59679ZM4.33949 9.38523C2.55511 9.38523 1.08758 7.99559 1.08758 6.27053C1.08758 4.56144 2.53843 3.15583 4.33949 3.15583C6.12387 3.15583 7.5914 4.54547 7.5914 6.27053C7.5914 7.97962 6.12387 9.38523 4.33949 9.38523ZM1.47114 2.62873C1.38776 2.48498 1.43779 2.32525 1.5712 2.24538L2.08817 1.95787C2.22158 1.87801 2.40502 1.92593 2.4884 2.06968L2.80526 2.59679C2.43837 2.74054 2.08817 2.93221 1.78799 3.15583L1.47114 2.62873ZM6.89099 3.15583C6.59081 2.91624 6.24061 2.72457 5.87372 2.59679L6.19058 2.06968C6.27396 1.92593 6.4574 1.89398 6.59081 1.95787L7.10778 2.24538C7.25787 2.32525 7.29122 2.50095 7.22452 2.62873L6.89099 3.15583ZM3.45564 1.75023V1.17521C3.45564 1.01548 3.58905 0.887695 3.75581 0.887695H4.93984C5.10661 0.887695 5.24002 1.01548 5.24002 1.17521V1.73425C5.24002 1.89398 5.10661 2.02176 4.93984 2.02176V2.35719C4.73972 2.32525 4.55628 2.30927 4.35617 2.30927C4.15605 2.30927 3.93926 2.32525 3.75581 2.35719V2.02176C3.58905 2.02176 3.45564 1.90995 3.45564 1.75023Z" fill="white"/>
    <path d="M4.34149 7.00539C4.14137 7.00539 3.97461 6.84566 3.97461 6.65399V4.19418C3.97461 4.0025 4.14137 3.84277 4.34149 3.84277C4.54161 3.84277 4.70837 4.0025 4.70837 4.19418V6.65399C4.70837 6.84566 4.54161 7.00539 4.34149 7.00539Z" fill="white"/>
    <path d="M4.34002 7.06927C4.66238 7.06927 4.9237 6.81897 4.9237 6.51022C4.9237 6.20147 4.66238 5.95117 4.34002 5.95117C4.01767 5.95117 3.75635 6.20147 3.75635 6.51022C3.75635 6.81897 4.01767 7.06927 4.34002 7.06927Z" fill="white"/>
</svg>
