<svg width="16" height="18" viewBox="0 0 16 18" fill="none" xmlns="http://www.w3.org/2000/svg">
    <path d="M2.22656 5.6665C2.96001 4.39481 4.09271 3.40077 5.44886 2.83865C6.80502 2.27653 8.3088 2.17776 9.72683 2.55768C11.1449 2.93759 12.3978 3.77494 13.2913 4.93978C14.1848 6.10461 14.6688 7.53179 14.6682 8.99983" stroke="#BBBBBB" stroke-width="2" stroke-linecap="round" stroke-linejoin="round"/>
    <path d="M13.7737 12.3333C13.0403 13.605 11.9076 14.5991 10.5514 15.1612C9.19524 15.7233 7.69146 15.8221 6.27343 15.4422C4.8554 15.0622 3.60242 14.2249 2.70895 13.0601C1.81547 11.8952 1.33146 10.468 1.33203 9" stroke="#BBBBBB" stroke-width="2" stroke-linecap="round" stroke-linejoin="round"/>
    <path d="M2.16797 1.5V5.66667H6.33463" stroke="#BBBBBB" stroke-width="2" stroke-linecap="round" stroke-linejoin="round"/>
    <path d="M13.8346 16.5002V12.3335H9.66797" stroke="#BBBBBB" stroke-width="2" stroke-linecap="round" stroke-linejoin="round"/>
</svg>
